PathFileType	4	(X/Y/Z)	Patient4_TMGait_0pt5_01_left_06.trc.trc
DataRate	CameraRate	NumFrames	NumMarkers	Units	OrigDataRate	OrigDataStartFrame	OrigNumFrames
71.065989847716	71.065989847716	4	33	mm	71.065989847716	36	       141
Frame#	Time	L.ASIS			Sacral			L.Shoulder			Chest			R.Shoulder			Neck			R.ASIS			R.Thigh.Superior			R.Thigh.Lateral			R.Thigh.Inferior			R.Patella			L.Thigh.Superior			L.Thigh.Lateral			L.Thigh.Inferior			L.Patella			L.Shank.Superior			L.Shank.Lateral			L.Shank.Inferior			R.Shank.Superior			R.Shank.Lateral			R.Shank.Inferior			R.Heel			R.Midfoot.Superior			R.Midfoot.Lateral			R.Toe			L.Heel			L.Midfoot.Lateral			L.Midfoot.Superior			L.Toe			L.Elbow			L.Wrist			R.Elbow			R.Wrist			
		X1	Y1	Z1	X2	Y2	Z2	X3	Y3	Z3	X4	Y4	Z4	X5	Y5	Z5	X6	Y6	Z6	X7	Y7	Z7	X8	Y8	Z8	X9	Y9	Z9	X10	Y10	Z10	X11	Y11	Z11	X12	Y12	Z12	X13	Y13	Z13	X14	Y14	Z14	X15	Y15	Z15	X16	Y16	Z16	X17	Y17	Z17	X18	Y18	Z18	X19	Y19	Z19	X20	Y20	Z20	X21	Y21	Z21	X22	Y22	Z22	X23	Y23	Z23	X24	Y24	Z24	X25	Y25	Z25	X26	Y26	Z26	X27	Y27	Z27	X28	Y28	Z28	X29	Y29	Z29	X30	Y30	Z30	X31	Y31	Z31	X32	Y32	Z32	X33	Y33	Z33	

36	8.472500000000	704.087089480562	956.819439641437	335.607557547291	484.456892016277	992.553649907239	488.475575886191	635.822619975801	1428.992194767171	320.308332468917	741.396296216741	1360.700194556663	480.743419750539	653.430505348202	1428.524947572791	655.954168098042	628.945542208563	1487.714693400503	470.298524166421	710.807142609358	930.968443416950	610.599481433572	723.311897712392	719.038387248463	582.006596440839	624.577539746643	620.132983916006	639.570885261851	694.147731133345	554.570192795717	564.572857716412	676.267456774263	453.885717577013	574.132789324430	778.716576134423	762.806335869134	370.388817030329	719.290479628403	636.687631341959	298.756607489642	813.173975967232	571.896435199319	366.733591820519	825.386523459134	498.979157518625	373.063871940186	801.054339831931	423.693765668755	361.898976846267	719.923884833910	307.761944877686	301.626530375058	772.499349310181	196.787184183863	371.374733373585	612.378872541848	379.966370153584	578.115819501810	507.262835980845	311.895739335421	640.893199505465	509.159367052356	207.218592200257	580.894630511155	323.300538984981	83.639688054352	558.472937378192	504.062762817949	101.901085267306	588.966490461737	406.270357025604	55.998305052591	627.741443005533	610.194568917943	36.661625236547	609.763762174632	647.425007300832	37.491580533261	397.711311509932	727.000396683469	35.714380591510	322.219020596615	806.963470739720	97.687491921152	354.745808082683	937.174005243757	48.497534981291	335.073362940145	575.677690134628	1078.691730173495	206.579109563563	598.505153054686	819.707590064126	198.323016695540	706.581880633060	1087.929466864940	773.967730532720	951.188397353627	1033.474194412666	732.275567870258	
37	8.486571428571	704.600935457700	958.336656001377	332.346143102484	484.603210045291	993.741048987861	484.603106056617	636.162915959297	1430.299434858823	316.891665006437	741.200637935648	1362.267576452633	477.782268028302	652.348758530924	1430.079067886677	652.548870775611	628.249635615097	1489.028856692375	466.716781165279	710.504135931445	932.291930239640	607.171026716545	726.244371289293	720.835883320638	579.879206454393	629.436692984018	620.864182386688	637.895501820377	700.998477689901	555.650291048645	563.907636262567	684.214780127733	453.454247445077	575.429820092947	777.910186743948	762.647530448662	367.442682057891	717.005824666458	636.765002233680	296.761805525473	809.596587479291	571.125885797232	365.330246193030	820.928205203044	498.432221604302	372.338506752552	796.387556834022	423.221995962749	361.261169449357	715.177711855810	307.519617355706	300.940544875247	766.426837330731	196.534117848082	371.389925572080	617.899412140135	380.634168140609	579.005631461509	509.996411351751	316.173270244280	640.730913375908	509.837757294547	210.750995861869	582.017767803724	320.396990194417	93.821643925357	559.084263977530	501.454431040571	103.087613654374	589.776607011440	401.669617714372	61.462806950450	627.983432268365	603.526986527719	36.203567451999	609.554358912591	640.506958152347	37.467143111945	397.688710064265	720.076362409780	35.723092816957	322.196559544119	800.084607380911	97.674027417722	354.780519518188	930.307832769121	48.342672114801	334.972150193634	583.038053895505	1078.634377576475	202.413617682359	615.874666901393	820.656584555960	193.935022982264	696.490400075381	1087.835211635739	770.535065817436	938.144336898095	1018.781654493352	730.729264672915	
38	8.500642857143	705.074478545213	959.763838942086	329.081492596134	484.678232000463	994.877132692101	480.666139533214	636.597579636967	1431.689251848155	313.577316138933	740.979376407605	1363.796765895384	474.946521912534	651.119075612572	1431.454828249533	649.256690992853	627.528587436714	1490.304562420855	463.289691521127	710.123772231418	933.620999906159	603.728876436033	729.708888278111	722.856906695189	577.819787901555	635.188082594394	621.672605089604	636.485068516520	708.888718325646	556.976468876079	563.486661715578	693.283017101070	453.317393917054	576.983871041447	776.823861813646	762.313119503623	364.625559648490	714.519875146910	636.811258900169	294.688999204906	805.685554133571	570.298971284426	363.950269351991	816.102759677375	497.805379202851	371.544050777339	791.385210572790	422.696520942982	360.511234581350	710.100215978830	307.162899877979	300.227654760865	760.142811879435	196.214007818141	371.366101937409	624.646212506123	381.552788233246	580.179099126994	513.950762000231	320.933147279352	640.766205668479	511.640220393220	214.828174218588	583.348402019392	318.765157145395	105.575541112753	559.769210103514	499.474084500248	104.566619423609	590.625359822552	397.749461964877	68.058574799383	628.261754725502	596.754710653515	35.535000302132	609.345114207012	633.436264894400	37.400770128554	397.685499220456	713.020008511179	35.661014105523	322.208840892364	793.105895095982	97.546333464332	354.874338122882	923.336738020272	47.982412378324	334.980371077088	590.188924280755	1078.972418477435	198.167402718931	633.869418138675	822.504729435327	189.609333988405	686.151012223175	1087.709356131865	766.833480842615	923.782791755210	1003.315261580633	729.440014097741	
39	8.514714285714	705.477634124656	961.034869200956	325.838787147601	484.644877973727	995.884838879811	476.696520674222	637.122132651747	1433.066310868565	310.369946494276	740.721406235083	1365.204069944854	472.251534529065	649.737181043902	1432.596100305840	646.085385678711	626.796469875691	1491.476514610365	460.010908477527	709.642234154172	934.887435110230	600.318190555839	733.666850024026	725.087874228949	575.816520637600	641.781727370247	622.557324516422	635.320899177828	717.734487012462	558.569919871987	563.267608852419	703.391700646189	453.512715267112	578.665248218683	775.503919380733	761.826024228375	361.928937859289	711.888835233961	636.824676943259	292.534452279427	801.553393794801	569.438775217137	362.544028911279	811.028490207591	497.113918814881	370.641173870022	786.160251046369	422.118047356530	359.625484809525	704.792689074430	306.706868697730	299.445483336928	753.721608677215	195.838111962190	371.278439685692	632.566166418906	382.737364291688	581.514064995170	519.153898308324	326.143072720833	640.955404790926	514.575433673143	219.454930374898	584.797981057618	318.561315685828	118.881475082915	560.477868718948	498.134092957230	106.468836030342	591.478880787286	394.624267344344	75.887586042636	628.550770584059	589.886290656150	34.626066520174	609.172389866982	626.260857136808	37.311068156785	397.686241626235	705.874182741813	35.552522973094	322.234820706124	786.058508552972	97.338618917746	355.002584123397	916.293477607409	47.478730196612	335.069058425966	597.137320789026	1079.605024958750	193.819058200035	652.395719198916	825.237952286049	185.361283892228	675.648955344168	1087.498866826292	762.855193121340	908.018337730487	987.168690293982	728.391301158276	
